<svg xmlns="http://www.w3.org/2000/svg" xmlns:xlink="http://www.w3.org/1999/xlink" width="500" zoomAndPan="magnify" viewBox="0 0 375 374.999991" height="500" preserveAspectRatio="xMidYMid meet" version="1.0"><defs><clipPath id="5c4405bfbc"><path d="M 63.445312 56 L 311 56 L 311 319 L 63.445312 319 Z M 63.445312 56 " clip-rule="nonzero"/></clipPath></defs><rect x="-37.5" width="450" fill="#ffffff" y="-37.499999" height="449.999989" fill-opacity="1"/><rect x="-37.5" width="450" fill="#7ed957" y="-37.499999" height="449.999989" fill-opacity="1"/><g clip-path="url(#5c4405bfbc)"><path fill="#ffffff" d="M 247.050781 302.347656 C 246.261719 302.382812 244.511719 302.664062 244.457031 301.164062 C 244.40625 299.792969 243.792969 299.046875 242.550781 298.53125 C 241.953125 298.285156 241.523438 297.609375 241.0625 297.085938 C 239.738281 295.585938 238.730469 295.433594 237.273438 293.160156 C 236.597656 292.113281 235.664062 291.585938 232.992188 288.796875 C 231.570312 287.3125 231.621094 286.097656 229.835938 284.496094 C 228.742188 283.515625 228.75 284.46875 228.0625 283.574219 C 226.328125 281.308594 224.222656 279.417969 221.980469 277.675781 C 219.871094 276.042969 218.003906 274.148438 216.082031 272.316406 C 214.859375 271.15625 214.28125 269.875 212.066406 266.527344 C 210.28125 263.824219 208.261719 262.878906 204.648438 257.59375 C 204.40625 257.242188 199.355469 250.773438 197.601562 248.6875 C 194.859375 245.425781 194.441406 243.144531 192.308594 241.480469 C 189.941406 239.632812 187.523438 237.839844 185.441406 235.652344 C 184.417969 234.574219 184.226562 234.609375 183.546875 235.992188 C 181.03125 241.117188 180.9375 241.625 180.710938 242.710938 C 180.28125 244.777344 179.929688 245.171875 178.730469 248.363281 C 174.964844 258.375 175.1875 257.835938 175.019531 258.113281 C 172.375 262.429688 172.027344 264.660156 170.679688 265.980469 C 169.003906 267.625 169.753906 269.394531 167.644531 269.992188 C 167.226562 270.109375 166.832031 270.3125 166.417969 270.4375 C 165.363281 270.746094 164.378906 271.191406 163.449219 271.773438 C 159.597656 274.167969 158.105469 273.367188 153.4375 276.15625 C 146.609375 280.234375 145.621094 280.480469 142.011719 281.847656 C 139.148438 282.933594 140.804688 282.550781 139.097656 282.941406 C 136.402344 283.558594 135.59375 283.367188 126.058594 287.816406 C 122.816406 289.332031 120.722656 289.820312 114.574219 293.121094 C 110.011719 295.566406 97.277344 299.683594 94.183594 300.742188 C 93.277344 301.054688 91.082031 301.617188 90.136719 300.992188 C 89.667969 300.6875 89.25 300.652344 88.867188 301.109375 C 88.457031 301.597656 87.882812 301.621094 87.316406 301.644531 C 85.839844 301.710938 86.765625 303.191406 84.28125 304.234375 C 83.09375 304.734375 84.152344 305.144531 82.53125 306.535156 C 81.535156 307.390625 82.679688 308.691406 81.695312 309.0625 C 79.15625 310.015625 80.460938 311.230469 79.742188 313.136719 C 78.597656 316.164062 79.632812 317.757812 69.296875 317.5625 C 68.113281 317.539062 67.519531 316.96875 67.421875 315.8125 C 67.292969 314.3125 66.113281 311.191406 66.214844 307.847656 C 66.246094 306.847656 66.1875 306.800781 65.234375 306.417969 C 63.511719 305.722656 63.472656 305.667969 63.476562 303.84375 C 63.480469 302.542969 63.449219 302.722656 64.664062 302.253906 C 64.191406 301.671875 64.238281 300.933594 64.015625 300.300781 C 63.769531 299.609375 63.886719 298.929688 63.753906 298.257812 C 63.683594 297.921875 63.722656 297.550781 64.054688 297.3125 C 65.394531 296.347656 64.332031 293.78125 65.894531 292.761719 C 66.964844 292.058594 67.867188 291.144531 68.640625 290.164062 C 72.121094 285.753906 68.902344 284.113281 70.039062 281.269531 C 70.167969 280.941406 70.289062 280.621094 70.582031 280.398438 C 73.246094 278.382812 72.519531 275.765625 74.085938 274.335938 C 77.480469 271.246094 80.980469 274.878906 82.980469 273.6875 C 83.574219 273.335938 84.347656 273.457031 85.039062 273.515625 C 88.898438 273.835938 89.316406 274.75 90.667969 274.191406 C 91.207031 273.96875 91.769531 274.273438 92.296875 274.5 C 92.921875 274.765625 92.925781 274.753906 93.152344 274.117188 C 93.359375 273.539062 93.554688 273.09375 94.167969 273.09375 C 94.859375 273.09375 96.132812 273.523438 96.859375 271.75 C 97.183594 270.957031 97.941406 270.65625 98.878906 270.582031 C 102.46875 270.308594 103.246094 271.429688 104.894531 270.601562 C 105.949219 270.070312 106.949219 269.539062 107.8125 268.691406 C 110.558594 265.996094 113.078125 265.785156 114.578125 264.410156 C 114.699219 264.296875 114.878906 264.203125 115.042969 264.183594 C 116.058594 264.070312 116.796875 263.472656 117.503906 262.816406 C 118.375 262.007812 120.050781 262.554688 121.457031 260.324219 C 123.945312 256.378906 129.097656 253.945312 133.664062 252.925781 C 134.585938 252.71875 135.402344 252.378906 136.113281 251.789062 C 137.222656 250.867188 138.496094 250.183594 139.660156 249.34375 C 141.445312 248.054688 143.453125 247.679688 145.613281 247.9375 C 146.351562 248.027344 146.449219 247.988281 146.609375 247.273438 C 147.15625 244.796875 147.707031 241.664062 147.851562 241.269531 C 148.585938 239.273438 147.070312 238.117188 147.734375 234.304688 C 148.132812 232.03125 147.441406 229.382812 147.722656 228.597656 C 147.722656 228.597656 147.679688 225.914062 147.800781 223.902344 C 147.824219 223.566406 147.699219 223.21875 147.636719 222.875 C 147.609375 222.703125 147.511719 222.523438 147.542969 222.367188 C 147.992188 219.964844 145.789062 221.238281 146.28125 219.722656 C 146.738281 218.324219 148.402344 218.089844 147.125 217.417969 C 146.472656 217.070312 145.691406 216.976562 144.253906 215.449219 C 141.324219 212.347656 141.75 210.640625 139.964844 208.488281 C 138.519531 206.742188 139.609375 207.289062 138.113281 205.523438 C 137.734375 205.082031 137.488281 204.59375 137.328125 204.042969 C 136.949219 202.753906 136.433594 201.5 136.3125 200.144531 C 136.257812 199.488281 135.011719 198.257812 135.347656 196.445312 C 135.722656 194.417969 136.960938 195.277344 136.695312 193.984375 C 135.855469 189.945312 137.414062 187.964844 137.144531 185.34375 C 137.046875 184.371094 137.277344 183.359375 137.402344 182.367188 C 137.785156 179.328125 138.125 178.199219 138.621094 177.324219 C 139.210938 176.28125 139.351562 175.851562 138.988281 175.546875 C 138.617188 175.230469 138.199219 175.105469 137.78125 175.34375 C 135.332031 176.734375 133.265625 175.558594 131.234375 174.324219 C 130.617188 173.953125 130.476562 173.203125 130.605469 172.574219 C 130.808594 171.589844 130.1875 170.53125 129.511719 169.785156 C 126.96875 166.953125 127.992188 162.132812 126.105469 159.9375 C 125.996094 159.8125 125.917969 159.636719 125.878906 159.472656 C 125.320312 157.15625 123.898438 156.933594 122.800781 154.082031 C 119.332031 145.058594 118.546875 144.152344 118.511719 142.753906 C 118.503906 142.460938 118.339844 142.289062 118.109375 142.132812 C 117.070312 141.4375 116.339844 140.453125 115.691406 139.417969 C 114.863281 138.09375 113.945312 136.8125 113.5 135.273438 C 113.386719 134.871094 113.105469 134.492188 112.835938 134.160156 C 109.164062 129.621094 108.207031 125.734375 103.847656 117.523438 C 102.335938 114.671875 100.1875 109.652344 100.484375 106.40625 C 100.667969 104.363281 101.234375 102.398438 101.898438 100.464844 C 102.140625 99.753906 102.582031 99.144531 103.195312 98.695312 C 104.8125 97.519531 105.140625 93.648438 110.460938 92.449219 C 112.332031 92.027344 114.1875 91.5625 116.128906 91.613281 C 118.0625 91.664062 116.257812 89.941406 114.882812 79.230469 C 114.570312 76.796875 114.625 75.335938 115.800781 70.730469 C 116.78125 66.898438 119.777344 63.957031 123.183594 61.976562 C 125.914062 60.390625 125.195312 61.351562 128.078125 59.886719 C 131.714844 58.039062 138.121094 55.898438 142.445312 56.042969 C 144.410156 56.109375 149.304688 55.964844 153.816406 60.4375 C 155.441406 62.050781 157.089844 64.332031 158.398438 69.097656 C 158.792969 70.535156 160.957031 69.113281 165.707031 71.003906 C 167.230469 71.609375 168.886719 73.480469 168.773438 75.621094 C 168.710938 76.835938 168.253906 78.003906 165.335938 79.929688 C 163.660156 81.039062 161.867188 81.933594 160.0625 82.808594 C 159.675781 83 159.242188 83.117188 158.953125 83.457031 C 158.949219 83.703125 159.070312 83.886719 159.226562 84.035156 C 159.871094 84.65625 159.9375 85.507812 160.121094 86.304688 C 160.4375 87.667969 158.511719 88.15625 158.605469 89.164062 C 158.679688 89.984375 159.675781 89.546875 160.476562 89.222656 C 164.679688 87.53125 164.875 87.386719 165.328125 87.285156 C 167.199219 86.855469 169.046875 86.371094 170.800781 85.574219 C 171.035156 85.46875 171.308594 85.40625 171.5625 85.40625 C 173.878906 85.410156 172.871094 83.9375 174.253906 84.050781 C 177.464844 84.324219 178.449219 84.636719 179.695312 84.410156 C 182.199219 85.046875 187.726562 82.402344 191.273438 83.726562 C 192.253906 84.09375 192.878906 84.382812 193.492188 83.554688 C 195.027344 81.484375 198.058594 81.464844 199.328125 82.519531 C 200.460938 83.464844 201.773438 82.378906 204.40625 82.386719 C 205.414062 82.390625 205.054688 81.398438 205.890625 81.277344 C 207.40625 81.0625 207.503906 81.421875 208.46875 81.917969 C 208.773438 82.074219 209.046875 82.292969 209.433594 82.253906 C 210.121094 82.183594 210.429688 82.648438 210.691406 83.191406 C 210.875 83.578125 210.835938 84.109375 211.265625 84.324219 C 211.738281 84.5625 212.199219 84.242188 212.648438 84.117188 C 240.757812 76.378906 239 77.21875 239.203125 76.449219 C 239.371094 75.796875 239.828125 75.402344 240.472656 75.273438 C 243.21875 74.710938 245.753906 73.515625 248.375 72.597656 C 266.582031 66.234375 283.742188 61.875 301.855469 58.429688 C 308.304688 57.203125 311.546875 62.644531 309.464844 69.179688 C 309.148438 70.179688 308.519531 70.890625 307.511719 71.3125 C 305.011719 72.371094 248.039062 86.523438 240.796875 83.878906 C 240.402344 83.738281 240.042969 83.75 239.652344 83.820312 C 230.527344 85.425781 221.355469 87.367188 212.359375 89.714844 C 211.609375 89.910156 211.167969 89.976562 211.25 90.386719 C 211.628906 92.25 210.523438 93.933594 210.355469 94.515625 C 209.417969 97.757812 207.511719 97.074219 208.164062 98.351562 C 208.96875 99.941406 209.585938 101.617188 210.203125 103.285156 C 210.476562 104.015625 210.507812 104.8125 210.5625 105.597656 C 210.890625 110.449219 209.859375 110.789062 210.019531 114.433594 C 210.207031 118.644531 210.265625 119.828125 209.027344 120.613281 C 208.777344 120.769531 208.710938 121.011719 208.71875 121.285156 C 208.742188 122.289062 209.390625 123.113281 207.238281 125.507812 C 206.558594 126.265625 205.597656 126.640625 204.664062 127.007812 C 203.53125 127.449219 202.320312 127.117188 200.910156 128 C 200.574219 128.210938 200.136719 128.136719 199.753906 128.105469 C 195.347656 127.734375 192.386719 130.429688 185.886719 135.4375 C 185.0625 136.074219 184.128906 136.585938 183.464844 137.519531 C 188.40625 150.101562 188.753906 149.527344 189.363281 158.28125 C 189.441406 159.441406 189.164062 160.527344 188.636719 161.554688 C 187.925781 162.949219 187.292969 164.398438 186.035156 165.429688 C 185.914062 165.53125 185.84375 165.714844 185.785156 165.875 C 185.5 166.648438 187.402344 165.59375 188.023438 167.347656 C 188.226562 167.929688 188.382812 168.511719 188.382812 169.132812 C 188.386719 170.742188 188.472656 172.359375 188.234375 173.960938 C 188.136719 174.617188 188.234375 175.175781 188.878906 175.519531 C 189.636719 175.921875 189.609375 176.734375 191.175781 178.335938 C 191.941406 179.117188 192.660156 179.933594 193.292969 180.824219 C 194.679688 182.78125 196.320312 184.542969 197.628906 186.558594 C 198.214844 187.460938 198.976562 187.519531 199.722656 187.761719 C 200.792969 188.113281 200.941406 188.792969 201.15625 189.894531 C 201.503906 191.691406 203.347656 191.085938 204.023438 193.925781 C 204.359375 195.332031 205.054688 194.890625 208.257812 200.800781 C 211.617188 207.003906 212.367188 207.75 213.609375 210.523438 C 214.5625 212.644531 214.976562 212.808594 216.378906 215.402344 C 217.648438 217.738281 217.933594 217.101562 218.464844 218.535156 C 219.386719 221.015625 221.007812 220.96875 221.097656 222.789062 C 221.136719 223.570312 221.738281 223.882812 222.386719 224.324219 C 224.132812 225.511719 222.234375 226.351562 223.527344 227.359375 C 225.832031 229.152344 224.710938 229.820312 226.125 230.140625 C 227.796875 230.519531 227.699219 231.671875 228.316406 232.207031 C 229.585938 233.308594 229.960938 234.957031 230.828125 236.304688 C 230.964844 236.511719 230.988281 236.800781 231.027344 237.058594 C 231.417969 239.621094 232.714844 239.695312 233.003906 242.265625 C 233.058594 242.773438 233.203125 243.167969 233.632812 243.484375 C 235.257812 244.6875 236.148438 246.371094 236.546875 248.300781 C 236.902344 250.003906 237.667969 251.421875 238.707031 252.824219 C 240.628906 255.410156 242.335938 258.152344 244.136719 260.828125 C 245.667969 263.105469 247.296875 264.601562 249.445312 269.199219 C 250.460938 271.371094 254.113281 274.554688 256.433594 278.292969 C 258.976562 282.386719 257.421875 282.863281 259.335938 283.546875 C 262.261719 284.589844 262.40625 283.777344 265.96875 285.804688 C 267.371094 286.601562 268.738281 289.261719 268.980469 290.84375 C 269.082031 291.507812 269.382812 292.019531 270.019531 292.390625 C 271.308594 293.136719 272.375 294.167969 273.433594 295.214844 C 275.660156 297.421875 274.914062 298.84375 276.621094 298.578125 C 277.351562 298.464844 278.105469 298.515625 278.808594 298.230469 C 279.46875 297.960938 280.160156 297.933594 280.863281 297.945312 C 285.5625 298.039062 288.292969 297.699219 290.050781 301.445312 C 290.507812 302.421875 290.757812 303.503906 290.707031 304.617188 C 290.648438 305.808594 290.710938 306.582031 290.242188 307.71875 C 287.238281 314.96875 282.851562 315.585938 274.707031 316.84375 C 271.109375 317.398438 267.582031 317.300781 263.972656 317.472656 C 262.476562 317.542969 261.015625 317.335938 259.570312 317.003906 C 257.722656 316.582031 256.546875 317.257812 254.957031 317.5 C 252.621094 317.859375 251.402344 319.089844 247.449219 317.636719 C 245.675781 316.984375 244.84375 314.9375 243.175781 312.824219 C 241.894531 311.195312 242.203125 309.195312 242.757812 307.207031 C 242.828125 306.957031 242.914062 306.6875 243.078125 306.503906 C 244.082031 305.371094 244.863281 304.019531 246.28125 303.292969 C 246.613281 303.121094 246.871094 302.8125 247.160156 302.570312 C 247.125 302.496094 247.085938 302.421875 247.050781 302.347656 Z M 162.984375 102.765625 C 163.957031 103.445312 164.410156 103.140625 165.589844 103.585938 C 167.632812 104.359375 171.257812 105.863281 172.777344 107.433594 C 173.648438 108.339844 174.589844 109.1875 175.277344 110.253906 C 176.335938 111.894531 178.863281 108.667969 181.769531 109.78125 C 182.738281 110.152344 183.503906 109.515625 184.34375 109.867188 C 186.628906 110.832031 188.691406 109.296875 190.984375 110.519531 C 191.921875 111.019531 192.867188 110.945312 193.875 110.644531 C 194.441406 110.476562 194.664062 110.226562 194.714844 109.6875 C 195.167969 104.667969 195.78125 102.539062 195.703125 99.0625 C 195.683594 98.355469 195.664062 98.117188 192.75 98.773438 C 191.808594 98.980469 190.882812 99.148438 190.261719 99.980469 C 190.097656 100.199219 189.914062 100.386719 189.625 100.363281 C 188.246094 100.238281 187.617188 102.132812 185.5625 102.179688 C 184.578125 102.199219 183.589844 102.144531 182.617188 101.777344 C 181.320312 101.292969 179.972656 100.949219 178.546875 101.359375 C 177.359375 101.703125 177.417969 100.058594 177.269531 99.242188 C 177.183594 98.773438 176.929688 98.417969 176.429688 98.371094 C 172.214844 97.980469 174.046875 98.851562 166.210938 101.355469 C 165.148438 101.691406 164.085938 102.082031 162.984375 102.765625 Z M 162.984375 102.765625 " fill-opacity="1" fill-rule="nonzero"/></g></svg>